<?xml version="1.0" encoding="utf-8"?>
<!-- Generator: Adobe Illustrator 27.0.0, SVG Export Plug-In . SVG Version: 6.00 Build 0)  -->
<svg version="1.1" id="Layer_2_00000109001111419406871040000004365642953225626276_"
	 xmlns="http://www.w3.org/2000/svg" xmlns:xlink="http://www.w3.org/1999/xlink" x="0px" y="0px" viewBox="0 0 128 128"
	 style="enable-background:new 0 0 128 128;" xml:space="preserve">
<style type="text/css">
	.st0{fill:#868484;}
	.st1{fill:none;}
</style>
<g id="Body">
	<g id="Body-2_00000018212987115103033830000003121217301781286531_">
		<path d="M96.9,122.4c-0.7,0-1.4-0.2-1.9-0.7l-0.1-0.1l0,0l-0.1-0.1c-0.2-0.2-0.4-0.5-0.6-0.8l0-0.1l-0.1-0.1
			c-2.5-3.6-7.1-7.4-22.3-8.1c-1.4-0.1-2.5-1.2-2.5-2.6V97.8c0-1.2,0.8-2.2,2-2.5c14.7-3.4,25-16.3,25-31.3
			c0-17.7-14.5-32.2-32.3-32.2c-0.4,0-0.8,0-1.3,0c-16.2,0.6-29.8,13.7-31,29.8C30.8,77.3,41,91.4,56.2,95.2c1.2,0.3,2,1.3,2,2.5
			v12.2c0,1.4-1.1,2.5-2.4,2.6c-14.7,0.8-19.2,4.5-21.6,8l-0.1,0.1l0,0.1c-0.2,0.3-0.3,0.6-0.6,0.8l-0.1,0.1l0,0l-0.1,0.1
			c-0.5,0.4-1.2,0.7-1.9,0.7c-0.5,0-1-0.1-1.4-0.4C17.8,115.5,9,104.8,5.8,92.8c-0.2-0.6-0.5-2.1,0.1-3c0.1-0.2,0.4-0.6,1.5-0.8
			c0,0,1.2-0.1,1.2-0.1c3.4,0,4.3-5.3,4.6-7c0.6-3.6,0.6-7.4,0.6-7.8c0-0.1,0-0.2,0-0.3v-20c0-0.3,0-0.7,0-1
			C13.7,46.5,12.6,39,8.5,39l-1.2-0.1c-1-0.1-1.3-0.6-1.4-0.8c-0.6-0.9-0.2-2.4-0.1-2.9C9,23.2,17.8,12.5,29.9,6
			c0.4-0.2,0.9-0.4,1.4-0.4c0.7,0,1.4,0.2,1.9,0.7l0.1,0.1l0,0l0.1,0.1C33.7,6.7,33.9,7,34,7.3l0,0.1l0.1,0.1
			c1.9,2.7,5.8,8.2,27.8,8.2l4.4,0c22,0,25.9-5.5,27.8-8.2l0.1-0.1l0-0.1c0.1-0.3,0.3-0.6,0.6-0.8l0.1-0.1l0,0l0,0l0.1-0.1
			c0.5-0.4,1.2-0.7,1.9-0.7c0.5,0,1,0.1,1.4,0.4c12.1,6.6,20.9,17.2,24.1,29.1c0.1,0.8,0.2,2.7-0.4,3.5c-0.1,0.2-0.3,0.3-0.8,0.3
			l-0.2,0c0,0-1.3,0.1-1.3,0.1c-0.8,0-2.1,0.4-3.1,2.2c-1.7,2.9-2.3,10-2.2,12.7l0,20.1c0,0.1,0,0.2,0,0.3c0,3.5,0.4,14.8,5.4,14.8
			l1.3,0.1c0,0,0.1,0,0.1,0c0.6,0,0.8,0.2,0.9,0.3c0.6,0.8,0.6,2.6,0.4,3.5c-3.2,12-11.9,22.6-24.1,29.1
			C97.8,122.3,97.3,122.4,96.9,122.4z"/>
		<path class="st0" d="M96.9,6.8c0.3,0,0.5,0.1,0.8,0.2c11.8,6.4,20.4,16.7,23.4,28.3c0.1,0.8,0.1,1.9-0.1,2.3l-0.1,0l-0.1,0
			l-1.2,0.1c-5.7,0.1-6.5,10.1-6.5,16.1c0,0.1,0,0.2,0,0.3v19.8c0,0.1,0,0.2,0,0.3c0,0.4,0,4.3,0.7,8c0.9,5.3,2.9,8,5.8,8.1l1.2,0.1
			l0.2,0l0.1,0c0.2,0.4,0.2,1.5,0.1,2.3c-3.1,11.6-11.6,21.9-23.4,28.3c-0.3,0.1-0.5,0.2-0.8,0.2c-0.4,0-0.8-0.1-1.1-0.4l-0.1-0.1
			l0,0c-0.1-0.1-0.2-0.3-0.3-0.5l-0.1-0.2l-0.1-0.2c-2.7-3.8-7.6-7.9-23.2-8.6c-0.7,0-1.3-0.6-1.3-1.3V97.8c0-0.6,0.4-1.1,1.1-1.3
			C87,93,97.6,79.6,97.6,64c0-18.4-15-33.4-33.5-33.4c-0.4,0-0.9,0-1.3,0c-16.9,0.6-31,14.2-32.2,31c-1.1,16.2,9.5,30.9,25.3,34.8
			c0.6,0.1,1,0.7,1,1.3v12.2c0,0.7-0.6,1.3-1.3,1.3c-15.2,0.8-19.9,4.8-22.6,8.6L33,120l-0.1,0.2c-0.1,0.2-0.2,0.3-0.3,0.5l0,0
			l-0.1,0.1c-0.3,0.3-0.7,0.4-1.1,0.4c-0.3,0-0.5-0.1-0.8-0.2c-11.9-6.4-20.4-16.8-23.5-28.4l0-0.1l0-0.1c-0.1-0.4-0.3-1.5,0-1.8
			c0-0.1,0.3-0.2,0.5-0.2l1.1-0.1c5.7-0.1,6.5-10.1,6.5-16.1c0-0.1,0-0.2,0-0.3V54.1c0-0.1,0-0.2,0-0.3c0-0.4,0-4.3-0.7-8
			c-0.9-5.3-2.9-8-5.8-8.1l-1.1-0.1c-0.3,0-0.5-0.1-0.5-0.2c-0.2-0.3-0.1-1.3,0-1.8l0-0.1l0-0.1c3.1-11.6,11.6-22,23.5-28.4
			c0.3-0.1,0.5-0.2,0.8-0.2c0.4,0,0.8,0.1,1.1,0.4l0.1,0.1l0,0c0.1,0.1,0.2,0.3,0.3,0.5L33,8l0.1,0.2c3.2,4.5,8.9,8.7,28.8,8.7
			l4.4,0c19.9,0,25.6-4.2,28.8-8.7L95.2,8l0.1-0.2c0.1-0.2,0.2-0.3,0.3-0.5l0,0l0.1-0.1C96.1,7,96.5,6.8,96.9,6.8L96.9,6.8
			 M96.9,4.3c-1,0-1.9,0.4-2.7,1c-0.1,0.1-0.2,0.1-0.3,0.3c-0.3,0.3-0.6,0.7-0.8,1.2c-2.1,3-6.2,7.7-26.7,7.7l-4.4,0
			c-20.5,0-24.6-4.7-26.7-7.7c-0.2-0.4-0.5-0.8-0.8-1.2c-0.1-0.1-0.2-0.2-0.3-0.3c-0.8-0.6-1.7-1-2.7-1c-0.7,0-1.3,0.2-2,0.5
			C16.2,12,7.7,23.2,4.6,34.8c0,0-1.6,4.8,2.6,5.3l1.3,0.1c4.2,0,4.1,13.9,4.1,13.9c0,0,0-0.1,0-0.3v20.4c0-0.2,0-0.3,0-0.3
			c0,0,0.1,13.9-4.1,13.9l-1.3,0.1c-4.2,0.5-2.6,5.3-2.6,5.3c3,11.6,11.6,22.9,24.7,30c0.6,0.3,1.3,0.5,2,0.5c1,0,1.9-0.4,2.7-1
			c0.1-0.1,0.2-0.1,0.3-0.3c0.3-0.3,0.6-0.7,0.8-1.2c1.9-2.7,5.4-6.7,20.7-7.5c2-0.1,3.6-1.8,3.6-3.8V97.7c0-1.8-1.2-3.3-2.9-3.7
			C42.4,90.5,32,77.2,33.1,61.8c1.1-15.6,14.1-28.1,29.8-28.6c0.4,0,0.8,0,1.2,0c17.1,0,31,13.8,31,30.9c0,14.7-10.3,26.9-24,30.1
			c-1.8,0.4-3,1.9-3,3.7v12.1c0,2,1.6,3.7,3.6,3.8c15.8,0.8,19.4,4.8,21.3,7.5c0.2,0.4,0.5,0.8,0.8,1.2v0c0.1,0.1,0.2,0.2,0.3,0.3
			c0.8,0.6,1.7,1,2.7,1c0.7,0,1.3-0.2,2-0.5c13.1-7.1,21.7-18.4,24.7-30c0,0,0.9-5.3-2.5-5.3c0,0-0.1,0-0.1,0l-1.3-0.1
			c-4.2,0-4.1-13.9-4.1-13.9c0,0,0,0.1,0,0.3V53.8c0,0.2,0,0.3,0,0.3c0,0-0.1-13.9,4.1-13.9l1.3-0.1c0,0,0.1,0,0.1,0
			c3.4,0,2.5-5.3,2.5-5.3c-3-11.6-11.6-22.9-24.7-30C98.2,4.5,97.5,4.3,96.9,4.3L96.9,4.3z"/>
	</g>
	<rect id="Canvas" class="st1" width="128" height="128"/>
</g>
</svg>
