<?xml version="1.0" encoding="utf-8"?>
<!-- Generator: Adobe Illustrator 27.0.0, SVG Export Plug-In . SVG Version: 6.00 Build 0)  -->
<svg version="1.1" id="Layer_2_00000119086477516138691240000000513774607103195298_"
	 xmlns="http://www.w3.org/2000/svg" xmlns:xlink="http://www.w3.org/1999/xlink" x="0px" y="0px" viewBox="0 0 175 175"
	 style="enable-background:new 0 0 175 175;" xml:space="preserve">
<style type="text/css">
	.st0{fill:#22262A;}
	.st1{fill:#7B9C57;}
</style>
<g id="SPT_MaskSimple">
	<g id="Body">
		<path id="BodyMask" class="st0" d="M0,0v175h175V0H0z M87.5,141.2c-29,0-52.5-23.5-52.5-52.5s23.5-52.5,52.5-52.5
			S140,59.7,140,88.7S116.5,141.2,87.5,141.2z"/>
		<g id="Body-2_00000052098575981252984380000000499869727938664875_">
			<path class="st1" d="M87.5,37.7c28.1,0,51,22.9,51,51s-22.9,51-51,51s-51-22.9-51-51S59.4,37.7,87.5,37.7 M87.5,36.2
				c-29,0-52.5,23.5-52.5,52.5s23.5,52.5,52.5,52.5S140,117.7,140,88.7S116.5,36.2,87.5,36.2L87.5,36.2z"/>
		</g>
	</g>
</g>
</svg>
