<?xml version="1.0" encoding="utf-8"?>
<!-- Generator: Adobe Illustrator 27.0.0, SVG Export Plug-In . SVG Version: 6.00 Build 0)  -->
<svg version="1.1" id="Layer_2_00000114054789322497263540000008502362208892997273_"
	 xmlns="http://www.w3.org/2000/svg" xmlns:xlink="http://www.w3.org/1999/xlink" x="0px" y="0px" viewBox="0 0 175 175"
	 style="enable-background:new 0 0 175 175;" xml:space="preserve">
<style type="text/css">
	.st0{fill-rule:evenodd;clip-rule:evenodd;fill:#13726D;}
	.st1{fill:#FFBB56;}
</style>
<g id="VLM_MaskSimple">
	<g id="Body">
		<g id="BodyMask">
			<path class="st0" d="M0,0v175h175V0H0z M87.5,144C56.8,144,32,119.2,32,88.5S56.8,33,87.5,33S143,57.8,143,88.5
				S118.2,144,87.5,144z"/>
		</g>
		<g id="BodyMask_00000142867250608387222050000001079200900283975606_">
			<path class="st1" d="M87.5,34c30.1,0,54.5,24.4,54.5,54.5S117.6,143,87.5,143S33,118.6,33,88.5S57.4,34,87.5,34 M87.5,33
				C56.8,33,32,57.8,32,88.5S56.8,144,87.5,144S143,119.2,143,88.5S118.2,33,87.5,33L87.5,33z"/>
		</g>
	</g>
</g>
</svg>
