<?xml version="1.0" encoding="utf-8"?>
<!-- Generator: Adobe Illustrator 27.0.0, SVG Export Plug-In . SVG Version: 6.00 Build 0)  -->
<svg version="1.1" id="scene" xmlns="http://www.w3.org/2000/svg" xmlns:xlink="http://www.w3.org/1999/xlink" x="0px" y="0px"
	 viewBox="0 0 15853.8 9606.2" style="enable-background:new 0 0 15853.8 9606.2;" xml:space="preserve">
<style type="text/css">
	.st0{display:none;}
	.st1{display:inline;fill:#C2C9CC;}
	.st2{display:inline;}
	.st3{fill:#F4F4F4;}
	.st4{fill:#DADEE0;}
	.st5{display:inline;fill:#FFFFFF;}
	.st6{font-family:'MyriadPro-Regular';}
	.st7{font-size:236.4635px;}
	.st8{fill:#B5BBC0;}
	.st9{fill:none;stroke:#F3F900;stroke-width:12;stroke-miterlimit:10;}
	.st10{fill:none;stroke:#FF0000;stroke-width:12;stroke-miterlimit:10;}
</style>
<g id="level">
	<g id="BG_00000121261137370295386630000011538018141624313017_" class="st0">
		<rect id="Background_00000115502163984119917490000006887048958888318082_" class="st1" width="15853.8" height="9606.2"/>
		<g id="Stars" class="st2">
			<circle class="st3" cx="8555.3" cy="3121.5" r="29.5"/>
			<circle class="st3" cx="8843.3" cy="2684.7" r="10.2"/>
			<circle class="st3" cx="7516.3" cy="2919.4" r="6.2"/>
			<circle class="st3" cx="10544.2" cy="4381.2" r="20.2"/>
			<circle class="st3" cx="8303.2" cy="4452.2" r="10.2"/>
			<circle class="st3" cx="7958.2" cy="4194.5" r="6.2"/>
			<circle class="st4" cx="10411.3" cy="6664.6" r="548.9"/>
			<circle class="st3" cx="7915.4" cy="1590.9" r="21.5"/>
			<circle class="st3" cx="11232.5" cy="2042" r="12.9"/>
			<circle class="st3" cx="10736.3" cy="3051.8" r="21.5"/>
			<circle class="st3" cx="6153.5" cy="1443" r="12.9"/>
			<circle class="st3" cx="4154.1" cy="1125.6" r="46.2"/>
			<circle class="st3" cx="2307.9" cy="1082.2" r="10.2"/>
			<circle class="st3" cx="1963" cy="824.5" r="6.2"/>
			<circle class="st3" cx="6470" cy="3243.1" r="10.2"/>
			<circle class="st3" cx="6416.6" cy="3132.3" r="10.2"/>
			<circle class="st3" cx="8280.1" cy="4051.9" r="6.2"/>
			<circle class="st3" cx="11331.9" cy="6125.9" r="10.2"/>
			<circle class="st3" cx="6716.5" cy="3067.1" r="6.2"/>
			<circle class="st3" cx="8514.3" cy="2091.9" r="6.2"/>
			<circle class="st3" cx="6044.5" cy="1828.1" r="10.2"/>
			<circle class="st3" cx="4427.3" cy="2348.3" r="6.2"/>
			<circle class="st3" cx="8003.6" cy="3027.8" r="6.2"/>
			<circle class="st3" cx="9393.5" cy="2774.2" r="6.2"/>
			<circle class="st3" cx="9393.5" cy="1888" r="6.2"/>
			<circle class="st3" cx="5601.5" cy="2902.2" r="6.2"/>
			<circle class="st3" cx="4582.4" cy="1632" r="6.2"/>
			<circle class="st3" cx="6737.5" cy="4107.1" r="6.2"/>
			<circle class="st3" cx="9471.5" cy="4762.6" r="6.2"/>
			<circle class="st3" cx="7957.3" cy="2293.4" r="6.2"/>
			<circle class="st3" cx="11784.2" cy="5166.2" r="12.9"/>
			<circle class="st3" cx="13710.7" cy="6317.5" r="6.2"/>
			<circle class="st3" cx="13275.3" cy="5630.5" r="6.2"/>
			<circle class="st3" cx="12318.2" cy="6037.9" r="6.2"/>
			<circle class="st3" cx="12522.6" cy="5267.2" r="12.9"/>
			<circle class="st3" cx="10297.7" cy="5445.2" r="10.2"/>
			<circle class="st3" cx="10244.3" cy="5334.4" r="10.2"/>
			<circle class="st3" cx="10544.2" cy="5269.2" r="6.2"/>
		</g>
		<g id="DEV">
			<text id="commentary" transform="matrix(1 0 0 1 6049.9688 3499.5791)" class="st5 st6 st7">test_level</text>
		</g>
	</g>
	<g id="FG">
		<path id="Grond_00000090294508072669667540000004443674178956937111_" class="st8" d="M3542.7,9483.2l6402.1,1034.1
			c545.7,88.1,1105.9,8.9,1603.9-230.9c458.1-220.6,889.3-583.9,889.3-1170.1c0-428.4,152.6-654.8,270.8-900.9
			c16.7-34.8,98.5-201.8,118.2-300.3c34.3-171.7,45.7-289.5,5-306.5s-545.3-299.1-545.3-299.1s-117.7,98.4-259.6,150.2
			c-205.7,75.1-859.2,318.8-1979.7-755.7c-790-757.6-1104-1949.5-3127.4-1934.8c-1556.7,11.4-2352-2584.6-4272-2643.7
			C964.4,2258.4,428.9,1548.3,260.5,1395.7C117.8,1266.3,80.7,1193.5,0,1165.4v4156.9C0,7390.7,1500.9,9153.4,3542.7,9483.2z"/>
	</g>
	<g id="DEV_00000140713308249059945520000011594365841192983714_" class="st0">
		<g id="PYSIDE" class="st2">
			<path id="Grond_00000171710155698552059560000011571639221677744265_" class="st9" d="M3542.7,9483.2l6402.1,1034.1
				c545.7,88.1,1105.9,8.9,1603.9-230.9c458.1-220.6,889.3-583.9,889.3-1170.1c0-428.4,152.6-654.8,270.8-900.9
				c16.7-34.8,98.5-201.8,118.2-300.3c34.3-171.7,45.7-289.5,5-306.5s-545.3-299.1-545.3-299.1s-117.7,98.4-259.6,150.2
				c-205.7,75.1-859.2,318.8-1979.7-755.7c-790-757.6-1104-1949.5-3127.4-1934.8c-1556.7,11.4-2352-2584.6-4272-2643.7
				C964.4,2258.4,428.9,1548.3,260.5,1395.7C117.8,1266.3,80.7,1193.5,0,1165.4v4156.9C0,7390.7,1500.9,9153.4,3542.7,9483.2z"/>
		</g>
		<g id="B2D" class="st2">
			<path id="Grond_00000109013483668278251420000015244882677276079243_" class="st10" d="M11548.8,10286.4
				c458.1-220.6,889.3-583.9,889.3-1170.1c0-428.4,152.6-654.8,270.8-900.9c16.7-34.8,98.5-201.8,118.2-300.3
				c34.3-171.7,45.7-289.5,5-306.5s-545.3-299.1-545.3-299.1s-117.7,98.4-259.6,150.2c-205.7,75.1-859.2,318.8-1979.7-755.7
				c-790-757.6-1104-1949.5-3127.4-1934.8c-1556.7,11.4-2352-2584.6-4272-2643.7C964.4,2258.4,428.9,1548.3,260.5,1395.7
				C117.8,1266.3,80.7,1193.5,0,1165.4"/>
		</g>
	</g>
</g>
</svg>
