<?xml version="1.0" encoding="utf-8"?>
<!-- Generator: Adobe Illustrator 27.0.0, SVG Export Plug-In . SVG Version: 6.00 Build 0)  -->
<svg version="1.1" xmlns="http://www.w3.org/2000/svg" xmlns:xlink="http://www.w3.org/1999/xlink" x="0px" y="0px"
	 viewBox="0 0 15853.8 9606.2" style="enable-background:new 0 0 15853.8 9606.2;" xml:space="preserve">
<style type="text/css">
	.st0{fill:#383838;}
	.st1{display:none;}
	.st2{display:inline;fill:#C1C1C1;}
	.st3{display:inline;fill:#FFFFFF;}
	.st4{font-family:'MyriadPro-Regular';}
	.st5{font-size:236.4635px;}
	.st6{display:inline;fill:#191919;}
	.st7{display:inline;}
	.st8{fill:none;stroke:#F3F900;stroke-width:12;stroke-miterlimit:10;}
	.st9{fill:none;stroke:#FF0000;stroke-width:12;stroke-miterlimit:10;}
</style>
<g id="scene">
	<g id="level">
		<g id="BG_00000121261137370295386630000011538018141624313017_">
			<rect id="Background_00000115502163984119917490000006887048958888318082_" class="st0" width="15853.8" height="9606.2"/>
			<g id="Planet" class="st1">
				<circle class="st2" cx="10411.3" cy="6664.6" r="548.9"/>
			</g>
			<g id="DEV" class="st1">
				<text id="commentary" transform="matrix(1 0 0 1 6049.9688 3499.5791)" class="st3 st4 st5">test_level</text>
			</g>
		</g>
		<g id="FG" class="st1">
			<path id="Grond_00000090294508072669667540000004443674178956937111_" class="st6" d="M3542.7,9483.2l6402.1,1034.1
				c545.7,88.1,1105.9,8.9,1603.9-230.9c458.1-220.6,889.3-583.9,889.3-1170.1c0-428.4,152.6-654.8,270.8-900.9
				c16.7-34.8,98.5-201.8,118.2-300.3c34.3-171.7,45.7-289.5,5-306.5s-545.3-299.1-545.3-299.1s-117.7,98.4-259.6,150.2
				c-205.7,75.1-859.2,318.8-1979.7-755.7c-790-757.6-1104-1949.5-3127.4-1934.8c-1556.7,11.4-2352-2584.6-4272-2643.7
				C964.4,2258.4,428.9,1548.3,260.5,1395.7C117.8,1266.3,80.7,1193.5,0,1165.4v4156.9C0,7390.7,1500.9,9153.4,3542.7,9483.2z"/>
		</g>
		<g id="DEV_00000140713308249059945520000011594365841192983714_" class="st1">
			<g id="PYSIDE" class="st7">
				<path id="Grond_00000171710155698552059560000011571639221677744265_" class="st8" d="M3542.7,9483.2l6402.1,1034.1
					c545.7,88.1,1105.9,8.9,1603.9-230.9c458.1-220.6,889.3-583.9,889.3-1170.1c0-428.4,152.6-654.8,270.8-900.9
					c16.7-34.8,98.5-201.8,118.2-300.3c34.3-171.7,45.7-289.5,5-306.5s-545.3-299.1-545.3-299.1s-117.7,98.4-259.6,150.2
					c-205.7,75.1-859.2,318.8-1979.7-755.7c-790-757.6-1104-1949.5-3127.4-1934.8c-1556.7,11.4-2352-2584.6-4272-2643.7
					C964.4,2258.4,428.9,1548.3,260.5,1395.7C117.8,1266.3,80.7,1193.5,0,1165.4v4156.9C0,7390.7,1500.9,9153.4,3542.7,9483.2z"/>
			</g>
			<g id="B2D" class="st7">
				<path id="Grond_00000109013483668278251420000015244882677276079243_" class="st9" d="M11548.8,10286.4
					c458.1-220.6,889.3-583.9,889.3-1170.1c0-428.4,152.6-654.8,270.8-900.9c16.7-34.8,98.5-201.8,118.2-300.3
					c34.3-171.7,45.7-289.5,5-306.5s-545.3-299.1-545.3-299.1s-117.7,98.4-259.6,150.2c-205.7,75.1-859.2,318.8-1979.7-755.7
					c-790-757.6-1104-1949.5-3127.4-1934.8c-1556.7,11.4-2352-2584.6-4272-2643.7C964.4,2258.4,428.9,1548.3,260.5,1395.7
					C117.8,1266.3,80.7,1193.5,0,1165.4"/>
			</g>
		</g>
	</g>
</g>
<g id="Layer_8">
</g>
</svg>
